<svg width="90" height="21" viewBox="0 0 90 21" fill="none" xmlns="http://www.w3.org/2000/svg">
<g id="Group">
<g id="Group_2">
<path id="Vector" d="M27.9727 3.87324C27.6435 2.64323 26.6768 1.67662 25.4468 1.34737C23.2197 0.75 14.285 0.75 14.285 0.75C14.285 0.75 5.35042 0.75 3.12323 1.34737C1.89323 1.67662 0.926623 2.64323 0.597366 3.87324C1.78814e-07 6.10042 0 10.75 0 10.75C0 10.75 1.78814e-07 15.3996 0.597366 17.6268C0.926623 18.8568 1.89323 19.8234 3.12323 20.1526C5.35042 20.75 14.285 20.75 14.285 20.75C14.285 20.75 23.2197 20.75 25.4468 20.1526C26.6768 19.8234 27.6435 18.8568 27.9727 17.6268C28.5701 15.3996 28.5701 10.75 28.5701 10.75C28.5701 10.75 28.5677 6.10042 27.9727 3.87324Z" fill="#FF0000"/>
<path id="Vector_2" d="M11.4253 15.0354L18.8477 10.7504L11.4253 6.46533V15.0354Z" fill="white"/>
</g>
<g id="Group_3">
<g id="youtube-paths">
<path id="Vector_3" d="M34.6024 13.7536L31.3945 2.16846H34.1932L35.3174 7.4201C35.6043 8.71361 35.8136 9.81662 35.95 10.7291H36.0323C36.1264 10.0753 36.3381 8.97937 36.665 7.43892L37.8291 2.16846H40.6278L37.3799 13.7536V19.311H34.6001V13.7536H34.6024Z" fill="white"/>
<path id="Vector_4" d="M41.4697 18.9437C40.9053 18.5627 40.5031 17.97 40.2632 17.1657C40.0257 16.3614 39.9058 15.2937 39.9058 13.9578V12.1398C39.9058 10.7922 40.0422 9.70805 40.315 8.89196C40.5878 8.07588 41.0135 7.47851 41.592 7.10457C42.1706 6.73063 42.9302 6.54248 43.871 6.54248C44.7976 6.54248 45.5384 6.73298 46.0981 7.11398C46.6555 7.49497 47.0647 8.09234 47.3234 8.90137C47.5821 9.71275 47.7115 10.7922 47.7115 12.1398V13.9578C47.7115 15.2937 47.5845 16.3661 47.3329 17.1751C47.0812 17.9865 46.672 18.5792 46.1075 18.9531C45.5431 19.3271 44.7764 19.5152 43.8098 19.5152C42.8126 19.5175 42.0342 19.3247 41.4697 18.9437ZM44.6353 16.9823C44.7905 16.5731 44.8705 15.9075 44.8705 14.9809V11.0792C44.8705 10.1808 44.7929 9.52225 44.6353 9.10833C44.4777 8.69206 44.2026 8.4851 43.8074 8.4851C43.4265 8.4851 43.156 8.69206 43.0008 9.10833C42.8432 9.52461 42.7656 10.1808 42.7656 11.0792V14.9809C42.7656 15.9075 42.8408 16.5754 42.9914 16.9823C43.1419 17.3915 43.4123 17.5961 43.8074 17.5961C44.2026 17.5961 44.4777 17.3915 44.6353 16.9823Z" fill="white"/>
<path id="Vector_5" d="M56.8154 19.3134H54.6094L54.3648 17.78H54.3037C53.7039 18.9371 52.8055 19.5156 51.6061 19.5156C50.7759 19.5156 50.1621 19.2428 49.767 18.6996C49.3719 18.1539 49.1743 17.3026 49.1743 16.1455V6.78751H51.9942V15.9808C51.9942 16.5406 52.0553 16.938 52.1776 17.1756C52.2999 17.4131 52.5045 17.533 52.7914 17.533C53.036 17.533 53.2712 17.4578 53.497 17.3073C53.7228 17.1567 53.8874 16.9662 53.9979 16.7358V6.78516H56.8154V19.3134Z" fill="white"/>
<path id="Vector_6" d="M64.4755 4.43758H61.6768V19.3129H58.9181V4.43758H56.1194V2.17041H64.4755V4.43758Z" fill="white"/>
<path id="Vector_7" d="M71.2768 19.3134H69.0708L68.8262 17.78H68.7651C68.1654 18.9371 67.267 19.5156 66.0675 19.5156C65.2373 19.5156 64.6235 19.2428 64.2284 18.6996C63.8333 18.1539 63.6357 17.3026 63.6357 16.1455V6.78751H66.4556V15.9808C66.4556 16.5406 66.5167 16.938 66.639 17.1756C66.7613 17.4131 66.9659 17.533 67.2529 17.533C67.4974 17.533 67.7326 17.4578 67.9584 17.3073C68.1842 17.1567 68.3488 16.9662 68.4593 16.7358V6.78516H71.2768V19.3134Z" fill="white"/>
<path id="Vector_8" d="M80.6091 8.7887C80.4374 7.99849 80.1621 7.42699 79.7812 7.07186C79.4002 6.71674 78.8758 6.54035 78.2079 6.54035C77.6905 6.54035 77.206 6.68616 76.7568 6.98014C76.3076 7.27412 75.9595 7.65747 75.7149 8.13489H75.6938V1.53564H72.9774V19.3108H75.3057L75.5926 18.1255H75.6538C75.8725 18.5488 76.1994 18.8804 76.6345 19.1274C77.0696 19.372 77.5541 19.4943 78.0856 19.4943C79.0381 19.4943 79.7413 19.0545 80.1905 18.1772C80.6397 17.2976 80.8654 15.9265 80.8654 14.0592V12.0766C80.8654 10.6772 80.7784 9.57892 80.6091 8.7887ZM78.0244 13.8992C78.0244 14.8117 77.9868 15.5267 77.9115 16.0441C77.8363 16.5615 77.7116 16.9308 77.5329 17.1471C77.3565 17.3658 77.1166 17.474 76.8179 17.474C76.5851 17.474 76.3711 17.4199 76.1735 17.3094C75.976 17.2012 75.8161 17.0366 75.6938 16.8202V9.71062C75.7878 9.3696 75.9525 9.09209 76.1853 8.87337C76.4158 8.65465 76.6698 8.54646 76.9402 8.54646C77.2272 8.54646 77.4482 8.65935 77.6035 8.88278C77.761 9.10855 77.8692 9.48485 77.9304 10.0164C77.9915 10.5479 78.0221 11.3028 78.0221 12.2835V13.8992H78.0244Z" fill="white"/>
<path id="Vector_9" d="M84.8657 14.6212C84.8657 15.4255 84.8892 16.0276 84.9363 16.4298C84.9833 16.8319 85.0821 17.1236 85.2326 17.3094C85.3831 17.4928 85.6136 17.5845 85.9264 17.5845C86.3474 17.5845 86.639 17.4199 86.7942 17.093C86.9518 16.7661 87.0365 16.2205 87.0506 15.4585L89.4824 15.6019C89.4965 15.7101 89.5035 15.8606 89.5035 16.0511C89.5035 17.2082 89.186 18.0737 88.5534 18.6452C87.9208 19.2167 87.0247 19.5036 85.8676 19.5036C84.4777 19.5036 83.504 19.0685 82.9466 18.196C82.3869 17.3235 82.1094 15.9759 82.1094 14.1508V11.9636C82.1094 10.0845 82.3987 8.71105 82.9772 7.84558C83.5558 6.9801 84.5459 6.54736 85.9499 6.54736C86.9165 6.54736 87.6597 6.72375 88.1771 7.07888C88.6945 7.434 89.059 7.98433 89.2707 8.73457C89.4824 9.4848 89.5882 10.5196 89.5882 11.8413V13.9862H84.8657V14.6212ZM85.2232 8.71811C85.0797 8.89449 84.9857 9.18377 84.9363 9.58593C84.8892 9.9881 84.8657 10.5972 84.8657 11.4157V12.3141H86.9283V11.4157C86.9283 10.6113 86.9001 10.0022 86.846 9.58593C86.7919 9.16966 86.6931 8.87803 86.5496 8.70635C86.4062 8.53702 86.1851 8.45 85.8864 8.45C85.5854 8.45235 85.3643 8.54172 85.2232 8.71811Z" fill="white"/>
</g>
</g>
</g>
</svg>
